<svg width="1600" height="1200" viewBox="0 0 1600 1200" fill="none" xmlns="http://www.w3.org/2000/svg">
  <rect width="1600" height="1200" fill="#F9F2EA"/>
  <circle cx="1308" cy="232" r="176" fill="#0F7A7F" fill-opacity="0.16"/>
  <circle cx="290" cy="925" r="230" fill="#C7733F" fill-opacity="0.14"/>
  <rect x="126" y="110" width="1348" height="980" rx="44" fill="#FFFDF9"/>
  <rect x="190" y="190" width="540" height="820" rx="30" fill="#F3E6D7"/>
  <rect x="776" y="190" width="634" height="820" rx="30" fill="#231B16"/>
  <rect x="844" y="270" width="500" height="288" rx="24" fill="#2C221C"/>
  <rect x="892" y="322" width="404" height="184" rx="18" fill="#3B2C23"/>
  <rect x="276" y="282" width="370" height="84" rx="22" fill="#FFFFFF"/>
  <rect x="276" y="418" width="270" height="20" rx="10" fill="#C9B09C"/>
  <rect x="276" y="462" width="334" height="20" rx="10" fill="#D8C1AE"/>
  <rect x="276" y="506" width="298" height="20" rx="10" fill="#E1CFC0"/>
  <ellipse cx="1092" cy="878" rx="212" ry="42" fill="#090607" fill-opacity="0.54"/>
  <circle cx="1090" cy="450" r="96" fill="#F0C8A5"/>
  <path d="M1004 420C1013 340 1082 296 1158 311C1199 319 1235 347 1253 386C1224 415 1186 435 1141 445C1091 455 1041 446 1004 420Z" fill="#18120F"/>
  <path d="M987 774C1018 683 1081 628 1171 610C1211 694 1227 777 1218 894H987V774Z" fill="#0F7A7F"/>
  <path d="M914 790C945 710 1007 659 1085 640C1121 720 1134 798 1126 894H914V790Z" fill="#C7733F"/>
  <rect x="1222" y="458" width="30" height="210" rx="15" transform="rotate(18 1222 458)" fill="#D8DADA"/>
  <circle cx="1298" cy="434" r="54" fill="#EFF1F1"/>
  <circle cx="1298" cy="434" r="28" fill="#AAB6B4"/>
  <rect x="876" y="648" width="138" height="182" rx="26" fill="#F7EDE4"/>
  <rect x="904" y="674" width="82" height="22" rx="11" fill="#0F7A7F"/>
  <rect x="904" y="718" width="58" height="22" rx="11" fill="#C7733F"/>
</svg>
