<svg xmlns="http://www.w3.org/2000/svg" viewBox="0 0 900 600" role="img" aria-labelledby="title">
  <title id="title">Professional Vocal Coaching Room</title>
  <rect width="900" height="600" rx="36" fill="#f6eee6"/>
  <rect x="70" y="90" width="760" height="420" rx="28" fill="#fffaf5" stroke="#e4d2c4"/>
  <rect x="120" y="140" width="220" height="260" rx="24" fill="#efe3d8"/>
  <rect x="390" y="140" width="360" height="160" rx="24" fill="#e9f6f4"/>
  <rect x="390" y="320" width="360" height="80" rx="24" fill="#f7ede4"/>
  <rect x="150" y="176" width="155" height="12" rx="6" fill="#c8a88f"/>
  <rect x="150" y="208" width="110" height="12" rx="6" fill="#d8bca5"/>
  <rect x="150" y="240" width="145" height="12" rx="6" fill="#d8bca5"/>
  <circle cx="582" cy="221" r="48" fill="#2b98a0"/>
  <circle cx="582" cy="221" r="20" fill="#fff"/>
  <rect x="640" y="186" width="70" height="18" rx="9" fill="#dc844c"/>
  <rect x="640" y="217" width="85" height="18" rx="9" fill="#e1a178"/>
  <rect x="640" y="248" width="58" height="18" rx="9" fill="#e1a178"/>
  <path d="M420 356c36-20 66-22 93-7 26 15 58 18 101 0 35-14 63-14 101 2" stroke="#dc844c" stroke-width="8" fill="none" stroke-linecap="round"/>
  <circle cx="505" cy="350" r="9" fill="#dc844c"/>
  <circle cx="608" cy="364" r="9" fill="#dc844c"/>
  <circle cx="711" cy="350" r="9" fill="#dc844c"/>
</svg>
