<svg xmlns="http://www.w3.org/2000/svg" viewBox="0 0 900 700" role="img" aria-labelledby="title desc">
  <title id="title">Music Studio Coaching Illustration</title>
  <desc id="desc">A warm-toned studio scene with a coach, singer and musical elements.</desc>
  <defs>
    <linearGradient id="bg" x1="0" x2="1" y1="0" y2="1">
      <stop offset="0%" stop-color="#fff6ee"/>
      <stop offset="100%" stop-color="#f4e2d0"/>
    </linearGradient>
    <linearGradient id="accent" x1="0" x2="1">
      <stop offset="0%" stop-color="#dc844c"/>
      <stop offset="100%" stop-color="#ad5727"/>
    </linearGradient>
    <linearGradient id="sea" x1="0" x2="1">
      <stop offset="0%" stop-color="#2b98a0"/>
      <stop offset="100%" stop-color="#1a6e75"/>
    </linearGradient>
  </defs>
  <rect width="900" height="700" rx="42" fill="url(#bg)"/>
  <circle cx="173" cy="137" r="92" fill="#ffe1cb"/>
  <circle cx="755" cy="150" r="76" fill="#d8f0ed"/>
  <rect x="90" y="160" width="720" height="420" rx="34" fill="#fffdf9" stroke="#e7d4c4"/>
  <rect x="130" y="205" width="260" height="280" rx="24" fill="#f7ede4"/>
  <rect x="510" y="208" width="240" height="145" rx="24" fill="#edf8f6"/>
  <rect x="510" y="375" width="240" height="110" rx="24" fill="#f9efe6"/>
  <rect x="170" y="250" width="180" height="12" rx="6" fill="#caa88c"/>
  <rect x="170" y="282" width="130" height="12" rx="6" fill="#d7b79b"/>
  <rect x="170" y="314" width="160" height="12" rx="6" fill="#d7b79b"/>
  <g transform="translate(435 170)">
    <ellipse cx="110" cy="280" rx="110" ry="20" fill="#ead6c6"/>
    <path d="M96 110c41 0 73 30 73 69v78H23v-78c0-39 32-69 73-69Z" fill="#20373d"/>
    <rect x="58" y="89" width="36" height="42" rx="18" fill="#f1be95"/>
    <circle cx="76" cy="58" r="44" fill="#f1be95"/>
    <path d="M38 57c7-40 69-56 84-5-6 18-25 27-42 27-13 0-32-8-42-22Z" fill="#2c221d"/>
    <rect x="94" y="162" width="104" height="14" rx="7" transform="rotate(-11 94 162)" fill="url(#accent)"/>
    <circle cx="202" cy="146" r="28" fill="#2b98a0"/>
    <circle cx="202" cy="146" r="13" fill="#fff"/>
  </g>
  <g transform="translate(220 230)">
    <ellipse cx="95" cy="260" rx="98" ry="18" fill="#ead6c6"/>
    <path d="M90 95c39 0 69 28 69 64v85H21v-85c0-36 30-64 69-64Z" fill="url(#accent)"/>
    <rect x="58" y="77" width="32" height="36" rx="16" fill="#f2c49d"/>
    <circle cx="74" cy="50" r="38" fill="#f2c49d"/>
    <path d="M41 49c2-34 58-48 72-7-8 15-22 23-39 23-11 0-24-6-33-16Z" fill="#37271e"/>
    <rect x="169" y="113" width="18" height="96" rx="9" fill="#302521"/>
    <rect x="152" y="110" width="54" height="26" rx="13" fill="#302521"/>
    <circle cx="145" cy="123" r="28" fill="url(#sea)"/>
    <circle cx="145" cy="123" r="13" fill="#fff"/>
  </g>
  <path d="M583 255c36-28 71-34 110-14 39 20 65 26 110 7" stroke="#2b98a0" stroke-width="8" stroke-linecap="round" fill="none"/>
  <path d="M561 430c25-19 50-23 78-8 28 15 52 22 92 14" stroke="#dc844c" stroke-width="8" stroke-linecap="round" fill="none"/>
  <circle cx="650" cy="245" r="10" fill="#2b98a0"/>
  <circle cx="721" cy="259" r="10" fill="#2b98a0"/>
  <circle cx="627" cy="423" r="10" fill="#dc844c"/>
  <circle cx="699" cy="435" r="10" fill="#dc844c"/>
</svg>
