<svg xmlns="http://www.w3.org/2000/svg" viewBox="0 0 900 600" role="img" aria-labelledby="title">
  <title id="title">Singer Performance Stage</title>
  <defs>
    <linearGradient id="bg" x1="0" x2="1" y1="0" y2="1">
      <stop offset="0%" stop-color="#1f2f38"/>
      <stop offset="100%" stop-color="#0f171c"/>
    </linearGradient>
    <linearGradient id="spot" x1="0" x2="0" y1="0" y2="1">
      <stop offset="0%" stop-color="#ffe0a6" stop-opacity="0.85"/>
      <stop offset="100%" stop-color="#ffe0a6" stop-opacity="0"/>
    </linearGradient>
  </defs>
  <rect width="900" height="600" rx="36" fill="url(#bg)"/>
  <path d="M290 30h320L540 470H360L290 30Z" fill="url(#spot)"/>
  <ellipse cx="450" cy="505" rx="170" ry="30" fill="#18242b"/>
  <path d="M445 190c48 0 84 34 84 78v145H361V268c0-44 36-78 84-78Z" fill="#dc844c"/>
  <rect x="425" y="164" width="38" height="42" rx="19" fill="#f0be97"/>
  <circle cx="444" cy="136" r="46" fill="#f0be97"/>
  <path d="M403 129c8-39 74-55 87-4-6 20-26 29-47 29-15 0-30-7-40-25Z" fill="#2c221d"/>
  <rect x="544" y="208" width="18" height="120" rx="9" fill="#ccd4d9"/>
  <rect x="526" y="205" width="56" height="24" rx="12" fill="#ccd4d9"/>
  <circle cx="518" cy="217" r="30" fill="#2b98a0"/>
  <circle cx="518" cy="217" r="14" fill="#fff"/>
  <circle cx="178" cy="110" r="24" fill="#dc844c"/>
  <circle cx="250" cy="170" r="18" fill="#2b98a0"/>
  <circle cx="718" cy="124" r="22" fill="#dc844c"/>
  <circle cx="792" cy="184" r="18" fill="#2b98a0"/>
</svg>
