<svg width="1600" height="1200" viewBox="0 0 1600 1200" fill="none" xmlns="http://www.w3.org/2000/svg">
  <rect width="1600" height="1200" fill="#1D1713"/>
  <rect width="1600" height="1200" fill="url(#bg)"/>
  <circle cx="1210" cy="238" r="245" fill="#0F7A7F" fill-opacity="0.28"/>
  <circle cx="345" cy="148" r="195" fill="#C7733F" fill-opacity="0.24"/>
  <circle cx="1345" cy="1035" r="290" fill="#C7733F" fill-opacity="0.18"/>
  <rect x="154" y="128" width="1292" height="944" rx="42" fill="#2A211B" stroke="rgba(255,255,255,0.12)"/>
  <rect x="206" y="188" width="1188" height="820" rx="28" fill="#3A2D23"/>
  <rect x="255" y="242" width="630" height="698" rx="26" fill="url(#wall)"/>
  <rect x="924" y="242" width="420" height="698" rx="26" fill="#241C17"/>
  <rect x="980" y="302" width="308" height="490" rx="22" fill="url(#window)"/>
  <rect x="1033" y="348" width="202" height="94" rx="16" fill="#FFF8EE" fill-opacity="0.82"/>
  <rect x="1060" y="470" width="150" height="20" rx="10" fill="#FFF8EE" fill-opacity="0.32"/>
  <rect x="1060" y="516" width="175" height="20" rx="10" fill="#FFF8EE" fill-opacity="0.18"/>
  <rect x="1060" y="562" width="120" height="20" rx="10" fill="#FFF8EE" fill-opacity="0.24"/>
  <ellipse cx="575" cy="867" rx="262" ry="43" fill="#100C09" fill-opacity="0.55"/>
  <ellipse cx="650" cy="700" rx="74" ry="124" fill="#D19A72"/>
  <path d="M587 779C616 746 680 747 709 779V897H587V779Z" fill="#E8D5C6"/>
  <path d="M587 787C613 761 683 763 709 787V937H587V787Z" fill="#C7733F"/>
  <rect x="618" y="512" width="58" height="150" rx="28" fill="#D19A72"/>
  <rect x="673" y="532" width="40" height="118" rx="20" fill="#D19A72"/>
  <circle cx="650" cy="474" r="84" fill="#F0C9A9"/>
  <path d="M583 446C592 391 637 356 690 365C718 370 740 388 752 415C719 438 682 452 643 456C622 458 601 455 583 446Z" fill="#221814"/>
  <path d="M705 510C742 532 761 576 761 627C696 625 648 599 616 548L705 510Z" fill="#F3E5D9"/>
  <rect x="736" y="528" width="33" height="213" rx="16.5" transform="rotate(-27 736 528)" fill="#2A211B"/>
  <circle cx="804" cy="493" r="55" fill="#CBC4BD"/>
  <circle cx="804" cy="493" r="32" fill="#9BA8A7"/>
  <rect x="374" y="504" width="100" height="297" rx="50" fill="#1A1411"/>
  <rect x="361" y="430" width="124" height="91" rx="24" fill="#2B241F"/>
  <circle cx="392" cy="463" r="10" fill="#0F7A7F"/>
  <circle cx="427" cy="463" r="10" fill="#C7733F"/>
  <circle cx="462" cy="463" r="10" fill="#FFF8EE"/>
  <path d="M302 840C302 748 376 674 468 674H495C587 674 661 748 661 840V896H302V840Z" fill="#F7F0E8" fill-opacity="0.1"/>
  <path d="M255 242H885V940H255V242Z" fill="url(#glow)" fill-opacity="0.24"/>
  <defs>
    <linearGradient id="bg" x1="217" y1="72" x2="1333" y2="1128" gradientUnits="userSpaceOnUse">
      <stop stop-color="#251B16"/>
      <stop offset="1" stop-color="#120D0B"/>
    </linearGradient>
    <linearGradient id="wall" x1="255" y1="242" x2="885" y2="940" gradientUnits="userSpaceOnUse">
      <stop stop-color="#B98B66"/>
      <stop offset="1" stop-color="#6B4A35"/>
    </linearGradient>
    <linearGradient id="window" x1="980" y1="302" x2="1288" y2="792" gradientUnits="userSpaceOnUse">
      <stop stop-color="#FFF7EC"/>
      <stop offset="1" stop-color="#D3C6BA"/>
    </linearGradient>
    <linearGradient id="glow" x1="570" y1="242" x2="570" y2="940" gradientUnits="userSpaceOnUse">
      <stop stop-color="#FFF3E4"/>
      <stop offset="1" stop-color="#FFF3E4" stop-opacity="0"/>
    </linearGradient>
  </defs>
</svg>
