<svg xmlns="http://www.w3.org/2000/svg" viewBox="0 0 32 32" role="img" aria-labelledby="title">
  <title>WhatsApp</title>
  <path fill="#25D366" d="M16.03 3.2c-7.1 0-12.84 5.74-12.84 12.82 0 2.26.6 4.47 1.73 6.4L3 29l6.78-1.77a12.8 12.8 0 0 0 6.25 1.59h.01c7.08 0 12.83-5.75 12.83-12.82S23.12 3.2 16.03 3.2Z"/>
  <path fill="#FFF" d="M23.4 19.52c-.3-.14-1.77-.87-2.04-.97-.27-.1-.46-.15-.65.15-.19.29-.75.97-.91 1.17-.17.2-.33.22-.62.07-.3-.14-1.23-.45-2.35-1.43-.87-.77-1.46-1.73-1.63-2.02-.17-.29-.02-.45.12-.59.13-.13.29-.34.43-.5.15-.17.2-.29.3-.49.1-.2.05-.37-.03-.52-.08-.14-.65-1.56-.89-2.14-.23-.54-.47-.46-.65-.47h-.55c-.19 0-.49.07-.75.37s-.98.96-.98 2.33c0 1.36 1 2.68 1.14 2.86.14.2 1.96 2.99 4.74 4.2.67.29 1.18.46 1.59.59.67.22 1.28.19 1.76.12.54-.08 1.77-.72 2.02-1.41.25-.69.25-1.28.17-1.42-.07-.13-.27-.2-.56-.34Z"/>
</svg>
